<svg width="42" height="64" viewBox="0 0 42 64" fill="none" xmlns="http://www.w3.org/2000/svg">
<path d="M29.1053 29.5116V1C29.1053 0.447715 28.6575 0 28.1053 0H20.8158H13.5263C12.974 0 12.5263 0.447713 12.5263 0.999998V29.5116C12.5263 30.0639 12.0786 30.5116 11.5263 30.5116H2.1176C1.27272 30.5116 0.808578 31.4945 1.34535 32.1469L20.0503 54.8835C20.4481 55.367 21.1873 55.3702 21.5893 54.8901L40.6253 32.1536C41.1702 31.5027 40.7075 30.5116 39.8585 30.5116H30.1053C29.553 30.5116 29.1053 30.0639 29.1053 29.5116Z" fill="white"/>
<path d="M41 55.814H1C0.447715 55.814 0 56.2617 0 56.814V63C0 63.5523 0.447716 64 1 64H41C41.5523 64 42 63.5523 42 63V56.814C42 56.2617 41.5523 55.814 41 55.814Z" fill="white"/>
</svg>
