<?xml version="1.0" encoding="utf-8"?>
<!-- Generator: Adobe Illustrator 28.1.0, SVG Export Plug-In . SVG Version: 6.00 Build 0)  -->
<svg version="1.1" id="Слой_1" xmlns="http://www.w3.org/2000/svg" xmlns:xlink="http://www.w3.org/1999/xlink" x="0px" y="0px"
	 viewBox="0 0 245 48.3" style="enable-background:new 0 0 245 48.3;" xml:space="preserve">
<style type="text/css">
	.st0{fill:#FFFFFF;}
	.st1{fill:#EA4335;}
	.st2{fill:#FBBC04;}
	.st3{fill:#4285F4;}
	.st4{fill:#34A853;}
</style>
<path class="st0" d="M240.6,20.3L236,31.9h-0.1l-4.7-11.5h-4.2l7.1,16.1l-4,9h4.1L245,20.3H240.6z"/>
<path class="st0" d="M208.6,10.7h-4v26.6h4V10.7z"/>
<path class="st0" d="M193.7,10.7h-9.5v26.6h4V27.3h5.5c4.4,0,8.7-3.2,8.7-8.3S198.1,10.7,193.7,10.7z M193.8,23.6h-5.6v-9.1h5.6
	c2.5,0,4.6,2,4.6,4.6C198.4,21.5,196.3,23.6,193.8,23.6L193.8,23.6z"/>
<path class="st0" d="M218.3,19.7c-2.9,0-5.9,1.3-7.1,4.1l3.5,1.5c0.7-1.3,2.1-2.1,3.6-1.9c2,0,4.1,1.2,4.2,3.4V27
	c-1.3-0.7-2.7-1-4.1-1c-3.8,0-7.7,2.1-7.7,6c0,3.6,3.1,5.9,6.6,5.9c2,0.1,4-0.9,5-2.6h0.1v2h3.8V27.1
	C226.4,22.4,222.9,19.8,218.3,19.7L218.3,19.7z M217.9,34.3c-1.3,0-3.1-0.6-3.1-2.3c0-2,2.3-2.8,4.2-2.8c1.3,0,2.5,0.3,3.6,0.9
	C222.3,32.5,220.3,34.3,217.9,34.3z"/>
<path class="st0" d="M74.7,37.9c-7.8,0.2-14.2-5.9-14.4-13.7C60.1,16.5,66.2,10,74,9.8c0.3,0,0.5,0,0.8,0c3.6-0.1,7.1,1.3,9.7,3.9
	l-2.7,2.7c-1.9-1.8-4.4-2.8-7-2.7c-5.6,0.2-10.1,4.9-9.9,10.5c0.2,5.4,4.5,9.7,9.9,9.9c2.7,0.1,5.3-0.9,7.1-2.8c1.2-1.3,2-3,2.1-4.8
	h-9.2v-3.8h13c0.1,0.8,0.2,1.6,0.2,2.4c0.1,3.3-1.1,6.6-3.3,9C82,36.7,78.4,38.1,74.7,37.9z"/>
<path class="st0" d="M108,28.9c0,5-4,9-9,9s-9-4-9-9s4-9,9-9c4.9-0.1,8.9,3.9,9,8.8C108,28.7,108,28.8,108,28.9z M104.1,28.9
	c-0.2-2.8-2.7-4.8-5.5-4.6c-2.8,0.2-4.8,2.7-4.6,5.5c0.2,2.6,2.4,4.7,5.1,4.6c2.9-0.1,5.1-2.5,5-5.4
	C104.1,28.9,104.1,28.9,104.1,28.9L104.1,28.9z"/>
<path class="st0" d="M128.1,28.9c0,5-4,9-9,9s-9-4-9-9s4-9,9-9c4.9-0.1,8.9,3.9,9,8.8C128.1,28.7,128.1,28.8,128.1,28.9z
	 M124.1,28.9c-0.2-2.8-2.7-4.8-5.5-4.6c-2.8,0.2-4.8,2.7-4.6,5.5c0.2,2.6,2.4,4.7,5.1,4.6c2.9-0.1,5.1-2.5,5-5.3
	C124.2,29,124.2,28.9,124.1,28.9L124.1,28.9z"/>
<path class="st0" d="M147.7,20.4v16.2c0,6.7-4,9.4-8.6,9.4c-3.5,0-6.7-2.1-8.1-5.4l3.5-1.4c0.7,1.9,2.5,3.2,4.6,3.2
	c3,0,4.9-1.9,4.9-5.3v-1.3h-0.1c-1.2,1.4-3,2.1-4.8,2.1c-5-0.2-8.9-4.5-8.6-9.5c0.2-4.7,4-8.4,8.6-8.6c1.8-0.1,3.6,0.7,4.8,2h0.1
	v-1.5H147.7L147.7,20.4z M144.1,28.9c0-3.2-2.1-5.5-4.9-5.5c-3,0-5.5,2.5-5.5,5.5s2.5,5.5,5.5,5.5C142,34.4,144.1,32.1,144.1,28.9
	L144.1,28.9z"/>
<path class="st0" d="M154.7,10.8v26.6h-4V10.8H154.7z"/>
<path class="st0" d="M170.4,31.9l3.1,2.1c-1.7,2.5-4.5,4-7.6,4c-4.8,0.1-8.8-3.8-8.9-8.6c0-0.1,0-0.2,0-0.4c0-5.4,3.8-9,8.5-9
	s7,3.7,7.8,5.8l0.4,1l-12.2,5c0.8,1.7,2.5,2.8,4.4,2.7C167.7,34.4,169.4,33.4,170.4,31.9z M160.8,28.6l8.1-3.4c-0.6-1.3-2-2-3.4-1.9
	C162.8,23.4,160.7,25.8,160.8,28.6C160.8,28.6,160.8,28.6,160.8,28.6L160.8,28.6z"/>
<path class="st1" d="M20.4,23.1L0.2,44.3l0,0C1,47.2,4,48.9,7,48.1c0.4-0.1,0.9-0.3,1.3-0.5h0.1l22.8-13L20.4,23.1z"/>
<path class="st2" d="M40.9,19.5L40.9,19.5l-9.8-5.6L20,23.5l11.1,11l9.8-5.6c2.6-1.4,3.6-4.6,2.2-7.3C42.7,20.8,41.9,20,40.9,19.5
	L40.9,19.5z"/>
<path class="st3" d="M0.2,4C0.1,4.4,0,4.9,0,5.4v37.5c0,0.5,0.1,0.9,0.2,1.4l21-20.7L0.2,4z"/>
<path class="st4" d="M20.6,24.1l10.5-10.4L8.3,0.8C7.4,0.3,6.5,0,5.5,0C3,0,0.8,1.7,0.2,4l0,0L20.6,24.1z"/>
</svg>
