<svg xmlns="http://www.w3.org/2000/svg" viewBox="0 0 210.14 320.96"><title>gkproduction_head_white</title><path d="M182.58,531.8c-55.72,0-101.05-57.38-101.05-127.92a5,5,0,0,1,10,0c0,65,40.85,117.92,91.05,117.92s91.06-52.9,91.06-117.92a5,5,0,0,1,10,0C283.64,474.42,238.3,531.8,182.58,531.8Z" transform="translate(-77.51 -210.84)" style="fill:#fff"/><path d="M262.81,393.41h-59.6a17.18,17.18,0,0,1-17.15-17.16V358.09h-6.34v18.16a17.17,17.17,0,0,1-17.15,17.16H103a17.17,17.17,0,0,1-17.15-17.16V353.09A17.16,17.16,0,0,1,103,335.94h59.6A17.18,17.18,0,0,1,179,348.09h7.82a17.19,17.19,0,0,1,16.41-12.15h59.6A17.17,17.17,0,0,1,280,353.09v23.16A17.18,17.18,0,0,1,262.81,393.41Zm-59.6-47.47a7.16,7.16,0,0,0-7.15,7.15v23.16a7.16,7.16,0,0,0,7.15,7.16h59.6a7.17,7.17,0,0,0,7.16-7.16V353.09a7.16,7.16,0,0,0-7.16-7.15Zm-100.24,0a7.16,7.16,0,0,0-7.15,7.15v23.16a7.16,7.16,0,0,0,7.15,7.16h59.6a7.16,7.16,0,0,0,7.15-7.16V353.09a7.16,7.16,0,0,0-7.15-7.15Z" transform="translate(-77.51 -210.84)" style="fill:#fff"/><path d="M77.51,343.5V331.14c0-66.33,47.14-120.3,105.07-120.3s105.08,54,105.08,120.3v12.22l-8.57-8.71c-20.8-21.17-36.78-34.67-57.22-41.95.77,6.74,0,13-2.43,23.42l-3.13,13.39-6.2-12.27c-9.09-18-32-33.91-56.52-28-22.34,6.92-45,22.18-67.48,45.37ZM182.58,220.84c-48.76,0-89.07,42.82-94.45,97.75,20.71-19.42,41.75-32.5,62.66-38.94l.28-.08c24.77-6.05,47.47,5.54,60.86,22.19a40.06,40.06,0,0,0-1.37-15.07l-2.08-8.24,8.21,2.19c23.16,6.16,40.08,18.28,60.35,37.87C271.61,263.61,231.32,220.84,182.58,220.84Z" transform="translate(-77.51 -210.84)" style="fill:#fff"/></svg>