<svg xmlns="http://www.w3.org/2000/svg" viewBox="0 0 1277.83 320.96"><title>gkproduction_logotype_white</title><path d="M384,435.1q-28.4,0-43.18-16.15T326,373.73q0-18.87,6.54-32.64a48.11,48.11,0,0,1,18.87-21.16q12.33-7.4,29.84-7.4a70.63,70.63,0,0,1,21.42,3.23A47.44,47.44,0,0,1,420.51,326a4.74,4.74,0,0,1,1.87,4.68,5.85,5.85,0,0,1-2.64,4c-1.41.91-3,.68-4.84-.68a42.13,42.13,0,0,0-15.47-9,60.06,60.06,0,0,0-18.36-2.72q-21.26,0-32.64,13.52t-11.39,38q0,25.33,11.81,38.59t35.28,13.26a80.19,80.19,0,0,0,29.75-5.44V381.21H387q-4.93,0-4.93-4.59,0-4.25,4.93-4.25h31.45q4.75,0,4.76,4.76v45.73q0,4.08-2.72,5.44a85.34,85.34,0,0,1-16.92,4.85A103.63,103.63,0,0,1,384,435.1Z" transform="translate(-77.51 -210.84)" style="fill:#fff"/><path d="M458.59,434.76q-5.1,0-5.1-5.44V318.14q0-5.26,5.1-5.27,5.27,0,5.27,5.27V369h.34l58.31-53a11,11,0,0,1,7.14-3.06q3.39,0,4.25,2.3c.56,1.53,0,3.08-1.7,4.67l-58.14,52.53,61,54.4q3.06,2.89,1.95,5.44t-4.5,2.55a7.37,7.37,0,0,1-3.49-.76,16.71,16.71,0,0,1-3.31-2.47L464.2,376.79h-.34v52.53Q463.86,434.77,458.59,434.76Z" transform="translate(-77.51 -210.84)" style="fill:#fff"/><path d="M561.78,434.76q-5.1,0-5.1-5.44v-110c0-3.62,1.75-5.44,5.27-5.44H601.9q19.2,0,29.32,9.18t10.12,26.18q0,16.83-10.12,26.1t-29.32,9.26H567.05v44.71Q567.05,434.77,561.78,434.76Zm5.27-59.33h34q29.75,0,29.75-26.18,0-26.36-29.75-26.35h-34Z" transform="translate(-77.51 -210.84)" style="fill:#fff"/><path d="M664.29,434.76c-3.52,0-5.27-1.76-5.27-5.27V355.54c0-3.62,1.75-5.44,5.27-5.44,3.28,0,4.93,1.82,4.93,5.44v10.71A26.81,26.81,0,0,1,680.35,354a35.07,35.07,0,0,1,17.09-4.42,4.83,4.83,0,0,1,3.4.85,3.8,3.8,0,0,1,1.36,3.23q.16,4.75-4.93,5.27l-2.38.17q-12.07,1-18.7,7.91t-6.63,18.44v44Q669.56,434.76,664.29,434.76Z" transform="translate(-77.51 -210.84)" style="fill:#fff"/><path d="M749,435.1q-11.57,0-20.07-5.18a34.65,34.65,0,0,1-13.17-14.79q-4.68-9.61-4.67-22.7,0-12.92,4.67-22.52A35.13,35.13,0,0,1,728.88,355,37.36,37.36,0,0,1,749,349.76q11.73,0,20.22,5.27a35.08,35.08,0,0,1,13.18,14.88q4.68,9.6,4.68,22.52,0,13.1-4.68,22.7a34.61,34.61,0,0,1-13.18,14.79Q760.68,435.1,749,435.1Zm0-8.67q12.57,0,20-8.92t7.49-25.08q0-16.14-7.49-25t-20-8.84q-12.59,0-20,8.84t-7.39,25q0,16.15,7.39,25.08T749,426.43Z" transform="translate(-77.51 -210.84)" style="fill:#fff"/><path d="M840.57,435.1q-11.22,0-19.38-5.18a34.24,34.24,0,0,1-12.66-14.79q-4.5-9.61-4.51-22.7,0-19.55,9.86-31.11t26.69-11.56A33.33,33.33,0,0,1,858,354.27a28.25,28.25,0,0,1,11.3,12.32V318.14q0-5.26,5.1-5.27c3.52,0,5.27,1.76,5.27,5.27V429.49q0,5.26-5.1,5.27-5.27,0-5.27-5.27V418.27A28.33,28.33,0,0,1,858,430.6,33.42,33.42,0,0,1,840.57,435.1Zm1.36-8.67q12.59,0,20.06-8.92t7.48-25.08q0-16.14-7.48-25t-20.06-8.84q-12.57,0-20,8.84t-7.4,25q0,16.15,7.4,25.08T841.93,426.43Z" transform="translate(-77.51 -210.84)" style="fill:#fff"/><path d="M935.94,435.1q-29.4,0-29.41-32v-47.6c0-3.62,1.76-5.44,5.27-5.44s5.1,1.82,5.1,5.44v47.09q0,12.08,4.93,17.85t15.47,5.78q11.4,0,18.62-7.65t7.22-20.4V355.54c0-3.62,1.76-5.44,5.27-5.44s5.1,1.82,5.1,5.44v73.95q0,5.26-4.93,5.27-5.1,0-5.1-5.27V419.12a28.33,28.33,0,0,1-11.3,11.9A32.45,32.45,0,0,1,935.94,435.1Z" transform="translate(-77.51 -210.84)" style="fill:#fff"/><path d="M1034.54,435.1q-12.06,0-20.74-5.35a35.09,35.09,0,0,1-13.34-15.13q-4.68-9.78-4.68-22.7,0-19.55,10.29-30.85t28.47-11.31a41.67,41.67,0,0,1,13,2.21,33.17,33.17,0,0,1,12,7,3.86,3.86,0,0,1,1.7,4.08,4.92,4.92,0,0,1-2.63,3.49q-2.13,1.1-4.68-.94a27.4,27.4,0,0,0-9.69-5.35,33,33,0,0,0-9.35-1.45q-13.77,0-21.16,8.67t-7.4,24.65q0,16,7.4,25.08t21.16,9.09a33.38,33.38,0,0,0,9.35-1.44,27.6,27.6,0,0,0,9.69-5.36q2.71-2,4.68-.93A4.74,4.74,0,0,1,1061,422a4.11,4.11,0,0,1-1.62,4.08,32.36,32.36,0,0,1-11.9,6.89A42.42,42.42,0,0,1,1034.54,435.1Z" transform="translate(-77.51 -210.84)" style="fill:#fff"/><path d="M1110,435.1q-13.77,0-20.65-7.48t-6.89-21.42V359.62H1069.9c-3.28,0-4.93-1.41-4.93-4.25s1.65-4.08,4.93-4.08h12.58V330q0-5.27,5.27-5.27,5.1,0,5.1,5.27v21.25h23q4.76,0,4.76,4.08c0,2.84-1.59,4.25-4.76,4.25h-23v45.22q0,10.37,4.25,15.81t14.11,5.44a17.39,17.39,0,0,0,5.61-.76,12.18,12.18,0,0,1,3.91-.77q3.06,0,3.06,4.25a6.27,6.27,0,0,1-.59,2.64,3.4,3.4,0,0,1-2.13,1.78,38.24,38.24,0,0,1-11,1.87Z" transform="translate(-77.51 -210.84)" style="fill:#fff"/><path d="M1141.64,330q-7.48,0-7.48-7.14,0-7,7.48-7t7.48,7Q1149.12,330,1141.64,330Zm0,104.38q-5.27,0-5.27-5.61V356.05q0-5.44,5.27-5.44,5.1,0,5.1,5.44v72.76Q1146.74,434.42,1141.64,434.42Z" transform="translate(-77.51 -210.84)" style="fill:#fff"/><path d="M1206.92,435.1q-11.57,0-20.06-5.18a34.61,34.61,0,0,1-13.18-14.79q-4.68-9.61-4.67-22.7,0-12.92,4.67-22.52A35.08,35.08,0,0,1,1186.86,355q8.49-5.26,20.06-5.27,11.73,0,20.23,5.27a35.13,35.13,0,0,1,13.17,14.88q4.68,9.6,4.68,22.52,0,13.1-4.68,22.7a34.65,34.65,0,0,1-13.17,14.79Q1218.65,435.1,1206.92,435.1Zm0-8.67q12.57,0,20.06-8.92t7.48-25.08q0-16.14-7.48-25t-20.06-8.84q-12.59,0-20,8.84t-7.39,25q0,16.15,7.39,25.08T1206.92,426.43Z" transform="translate(-77.51 -210.84)" style="fill:#fff"/><path d="M1272.37,434.76c-3.52,0-5.27-1.76-5.27-5.27V355.54c0-3.62,1.75-5.44,5.27-5.44,3.28,0,4.93,1.82,4.93,5.44v10.54A27.28,27.28,0,0,1,1289,353.84a35.53,35.53,0,0,1,17-4.08q29.4,0,29.41,32v47.77q0,5.26-5.1,5.27c-3.52,0-5.27-1.76-5.27-5.27V382.57q0-12.24-4.93-18t-15.64-5.78q-12.24,0-19.64,7.57t-7.39,20.31v42.84Q1277.47,434.76,1272.37,434.76Z" transform="translate(-77.51 -210.84)" style="fill:#fff"/><path d="M1350.34,461.6H315.11a5,5,0,0,1,0-10H1350.34a5,5,0,0,1,0,10Z" transform="translate(-77.51 -210.84)" style="fill:#fff"/><path d="M1350.34,298.64H315.11a5,5,0,0,1,0-10H1350.34a5,5,0,0,1,0,10Z" transform="translate(-77.51 -210.84)" style="fill:#fff"/><path d="M182.58,531.8c-55.72,0-101.05-57.38-101.05-127.92a5,5,0,0,1,10,0c0,65,40.85,117.92,91.05,117.92s91.06-52.9,91.06-117.92a5,5,0,0,1,10,0C283.64,474.42,238.3,531.8,182.58,531.8Z" transform="translate(-77.51 -210.84)" style="fill:#fff"/><path d="M262.81,393.41h-59.6a17.18,17.18,0,0,1-17.15-17.16V358.09h-6.34v18.16a17.17,17.17,0,0,1-17.15,17.16H103a17.17,17.17,0,0,1-17.15-17.16V353.09A17.16,17.16,0,0,1,103,335.94h59.6A17.18,17.18,0,0,1,179,348.09h7.82a17.19,17.19,0,0,1,16.41-12.15h59.6A17.17,17.17,0,0,1,280,353.09v23.16A17.18,17.18,0,0,1,262.81,393.41Zm-59.6-47.47a7.16,7.16,0,0,0-7.15,7.15v23.16a7.16,7.16,0,0,0,7.15,7.16h59.6a7.17,7.17,0,0,0,7.16-7.16V353.09a7.16,7.16,0,0,0-7.16-7.15Zm-100.24,0a7.16,7.16,0,0,0-7.15,7.15v23.16a7.16,7.16,0,0,0,7.15,7.16h59.6a7.16,7.16,0,0,0,7.15-7.16V353.09a7.16,7.16,0,0,0-7.15-7.15Z" transform="translate(-77.51 -210.84)" style="fill:#fff"/><path d="M77.51,343.5V331.14c0-66.33,47.14-120.3,105.07-120.3s105.08,54,105.08,120.3v12.22l-8.57-8.71c-20.8-21.17-36.78-34.67-57.22-41.95.77,6.74,0,13-2.43,23.42l-3.13,13.39-6.2-12.27c-9.09-18-32-33.91-56.52-28-22.34,6.92-45,22.18-67.48,45.37ZM182.58,220.84c-48.76,0-89.07,42.82-94.45,97.75,20.71-19.42,41.75-32.5,62.66-38.94l.28-.08c24.77-6.05,47.47,5.54,60.86,22.19a40.06,40.06,0,0,0-1.37-15.07l-2.08-8.24,8.21,2.19c23.16,6.16,40.08,18.28,60.35,37.87C271.61,263.61,231.32,220.84,182.58,220.84Z" transform="translate(-77.51 -210.84)" style="fill:#fff"/></svg>